HIERARCHY
ROOT pelvis
{
  OFFSET 0 100 0
  CHANNELS 6 Xposition Yposition Zposition Zrotation Xrotation Yrotation
  JOINT pelvis_right_femur
  {
    OFFSET -10.78128 -3.44521 -0.5502486
    CHANNELS 3 Zrotation Xrotation Yrotation
    JOINT right_femur_tibia
    {
      OFFSET -0.8047443 -44.0398 -0.1307829
      CHANNELS 3 Zrotation Xrotation Yrotation
      JOINT right_tibia_foot
      {
        OFFSET 3.006224 -47.83518 -5
        CHANNELS 3 Zrotation Xrotation Yrotation
        End Site
        {
          OFFSET 0 -5 15
        }
      }
    }
  }
  JOINT pelvis_left_femur
  {
    OFFSET 10.78128 -3.44521 -0.5502486
    CHANNELS 3 Zrotation Xrotation Yrotation
    JOINT left_femur_tibia
    {
      OFFSET 0.8047443 -44.0398 -0.1307829
      CHANNELS 3 Zrotation Xrotation Yrotation
      JOINT left_tibia_foot
      {
        OFFSET -4.370144 -48.10324 -4.275266
        CHANNELS 3 Zrotation Xrotation Yrotation
        End Site
        {
          OFFSET 0 -5 15
        }
      }
    }
  }
  JOINT pelvis_spine1
  {
    OFFSET 0 6.468898 -3.129235
    CHANNELS 3 Zrotation Xrotation Yrotation
    JOINT spine1
    {
      OFFSET 0 23.15396 4.99043
      CHANNELS 3 Zrotation Xrotation Yrotation
      JOINT spine2
      {
        OFFSET 0 20.79997 -5.064912
        CHANNELS 3 Zrotation Xrotation Yrotation
        JOINT neck
        {
          OFFSET 0 14.38658 9.616178
          CHANNELS 3 Zrotation Xrotation Yrotation
          End Site
          {
            OFFSET 0 20 0
          }
        }
      }
      JOINT right_manubrium
      {
        OFFSET -5.722621 16.35077 3.967754
        CHANNELS 3 Zrotation Xrotation Yrotation
        JOINT right_clavicle
        {
          OFFSET -13.16364 1.694482 -4.693211
          CHANNELS 3 Zrotation Xrotation Yrotation
          JOINT right_humerus
          {
            OFFSET -28.5034 -0.3100689 -2.792744
            CHANNELS 3 Zrotation Xrotation Yrotation
            JOINT right_radius
            {
              OFFSET -25.15693 0.02248979 -1.271978
              CHANNELS 3 Zrotation Xrotation Yrotation
              End Site
              {
                OFFSET -15 0 0
              }
            }
          }
        }
      }
      JOINT left_manubrium
      {
        OFFSET 5.722621 16.35077 3.967754
        CHANNELS 3 Zrotation Xrotation Yrotation
        JOINT left_clavicle
        {
          OFFSET 13.16364 1.694482 -4.693211
          CHANNELS 3 Zrotation Xrotation Yrotation
          JOINT left_humerus
          {
            OFFSET 29.39168 -1.063119 -2.237045
            CHANNELS 3 Zrotation Xrotation Yrotation
            JOINT left_radius
            {
              OFFSET 24.59957 -0.9528479 0.9047498
              CHANNELS 3 Zrotation Xrotation Yrotation
              End Site
              {
                OFFSET 15 -0 -0
              }
            }
          }
        }
      }
    }
  }
}
MOTION
Frames: 23
Frame Time: 0.0416666666667
0 103.5113 0 0.8459109 1.049235 0.8026736 1.925418 -22.90993 8.390678 -0 36.61981 -0 2.781755 -14.22443 -6.205518 -6.537599 10.94608 -19.43629 0 -1.943765 0 -2.616691 -23.44004 19.34726 -4.366875 0.03915439 3.367875 2.20152 5.245638 -7.219335 1.613513 21.90589 8.412502 2.960323 -21.8659 10.54274 7.672127 -15.04173 9.941667 81.8543 38.75689 -16.3942 -0 0 15.2591 -12.28098 12.33706 8.486442 5.232537 -15.91227 -0.384651 -89.89969 37.079 15.73542 0 0 -21.80822 -6.151056 9.243242 23.16227
0.4945482 102.5978 3.297029 0.8868517 1.055921 1.654662 1.73469 -22.50156 8.481193 -0 37.68315 -0 3.00912 -14.2638 -6.199677 -6.626222 10.67819 -19.59112 0 -2.8221 0 -2.583095 -23.55507 19.51202 -4.461848 0.05286267 3.396694 2.152799 5.170518 -7.138617 1.628512 21.92781 8.443505 2.95767 -21.82177 10.59523 7.766167 -15.0669 9.907811 81.55207 38.87115 -16.01821 -0 0 15.50454 -12.35412 12.33271 8.60389 5.177921 -15.68088 -0.3144421 -90.10778 37.31865 16.01528 0 0 -21.45098 -6.404699 9.109212 23.52365
0.9799591 101.6962 6.755205 0.7914423 0.6107309 2.446072 1.979496 -22.87654 7.742245 -0 35.79635 -0 2.010927 -12.99651 -6.122967 -6.424162 11.25314 -18.83689 0 -0.272599 0 -2.383211 -22.94829 19.10086 -4.172775 -0.05894431 3.286205 2.138963 5.690962 -7.268694 1.59704 21.94363 8.266141 2.964588 -21.74311 10.32996 7.195093 -15.18607 10.03529 82.72552 37.80077 -16.93537 -0 0 14.75233 -12.73302 12.21127 8.466144 5.3412 -16.49885 -0.7751936 -89.39147 35.77753 15.24798 0 0 -21.91249 -5.070023 9.741228 21.59889
1.44955 100.7684 10.21203 0.6501855 0.7220289 3.160506 2.364054 -23.90294 7.487969 -0 33.36551 -0 1.37113 -12.97922 -6.015567 -6.236254 11.87126 -18.65377 -0 0.5923886 -0 -2.155808 -22.86603 18.91186 -3.99477 -0.1496918 3.215016 2.264777 5.873742 -7.468377 1.538752 21.86739 8.211617 2.990898 -21.94309 10.21372 6.966417 -15.28522 10.12466 83.34485 37.56791 -17.69503 -0 0 14.36653 -12.47585 12.12559 8.203551 5.510474 -17.06282 -0.9277619 -89.08593 35.16606 14.87084 0 0 -22.65054 -4.357044 10.18533 20.59374
1.886649 99.78277 13.68505 0.4912392 0.7767411 3.79369 2.802439 -25.02656 7.150793 -0 30.56279 -0 0.5946501 -12.82252 -5.901617 -6.015977 12.58743 -18.36053 -0 1.916817 -0 -1.92458 -22.69246 18.64538 -3.769238 -0.2523045 3.129236 2.397157 6.1229 -7.694068 1.475681 21.79049 8.132204 3.016828 -22.13738 10.06037 6.662539 -15.38855 10.23219 84.12554 37.19184 -18.59818 -0 0 13.85705 -12.25284 12.031 7.908913 5.700998 -17.74896 -1.138623 -88.6885 34.35002 14.37789 0 0 -23.49501 -3.452542 10.68989 19.32425
2.281933 98.7435 17.16371 0.3232616 0.9009122 4.342293 3.274139 -26.22442 6.929736 -0 27.6936 -0 -0.07346864 -12.87468 -5.819694 -5.799402 13.29699 -18.12681 -0 3.25097 -0 -1.777736 -22.56247 18.36898 -3.555055 -0.333103 3.054184 2.549599 6.304587 -7.925363 1.415357 21.70545 8.07079 3.039465 -22.35091 9.93423 6.42766 -15.44355 10.32841 84.81102 36.95361 -19.48193 -0 0 13.37131 -11.94516 11.96989 7.59498 5.876204 -18.37097 -1.291889 -88.33528 33.7251 13.89823 0 0 -24.39967 -2.701105 11.10362 18.28154
2.630223 97.66722 20.67947 0.1683749 0.9526033 4.807185 3.731574 -27.29415 6.719429 -0 24.98494 -0 -0.686199 -12.83341 -5.781397 -5.593184 13.96461 -17.81335 -0 5.025677 -0 -1.745771 -22.34333 18.02719 -3.330594 -0.3903699 2.983832 2.683135 6.491874 -8.136695 1.36782 21.6388 7.999278 3.052149 -22.50358 9.803965 6.189672 -15.44307 10.41836 85.50274 36.65801 -20.34719 -0 0 12.82805 -11.72004 11.94357 7.301402 6.023701 -18.96522 -1.45592 -87.94607 33.09314 13.35155 0 0 -25.27259 -1.987043 11.43822 17.29402
2.930132 96.59009 24.27618 0.03908369 0.9134997 5.190829 4.157443 -28.14888 6.546965 -0 22.60866 -0 -1.172734 -12.69444 -5.813189 -5.410493 14.54525 -17.40584 -0 7.369939 -0 -1.896658 -22.01084 17.6037 -3.102452 -0.4067865 2.924397 2.786928 6.667457 -8.311212 1.341381 21.6 7.91963 3.049832 -22.56516 9.678335 5.96989 -15.35188 10.49385 86.16104 36.32293 -21.15192 -0 0 12.22673 -11.60702 11.9768 7.044721 6.122977 -19.48268 -1.6199 -87.52054 32.51392 12.7249 0 0 -26.0762 -1.395481 11.63988 16.47686
3.184291 95.56239 28.0193 -0.04954515 0.7248806 5.497148 4.52826 -28.67119 6.386726 -0 20.71331 -0 -1.514084 -12.35477 -5.931743 -5.259467 14.99928 -16.84282 -0 10.52791 -0 -2.278984 -21.49871 17.06987 -2.864533 -0.3718155 2.877835 2.842276 6.848141 -8.431432 1.344019 21.60297 7.822292 3.027422 -22.49155 9.550257 5.753794 -15.14784 10.55313 86.79846 35.89004 -21.87379 -0 0 11.53651 -11.67937 12.08585 6.84658 6.158199 -19.91153 -1.802526 -87.03283 31.94741 11.98391 0 0 -26.76308 -0.9321706 11.68339 15.83212
3.398986 94.65105 31.99176 -0.08504255 0.3475121 5.730904 4.828835 -28.74497 6.239276 -0 19.42377 -0 -1.664666 -11.77262 -6.159432 -5.146042 15.2663 -16.07752 -0 14.72637 -0 -2.954665 -20.74686 16.40483 -2.613692 -0.2700827 2.851145 2.834663 7.034258 -8.479364 1.38413 21.65876 7.701558 2.979335 -22.24469 9.418956 5.543491 -14.80278 10.59265 87.39939 35.33904 -22.47869 -0 0 10.74271 -11.98993 12.29451 6.727306 6.110165 -20.2217 -2.007521 -86.47269 31.40026 11.10855 0 0 -27.2928 -0.6444887 11.52771 15.42087
3.58456 93.93909 36.29362 -0.05535616 -0.263859 5.896948 5.043763 -28.21335 6.098784 -0 18.84185 -0 -1.585642 -10.91034 -6.514664 -5.068827 15.24724 -15.05278 -0 20.20243 -0 -3.976979 -19.67607 15.59886 -2.343823 -0.08708563 2.856241 2.747188 7.231465 -8.433216 1.470021 21.77805 7.548047 2.899621 -21.78464 9.279822 5.334595 -14.29934 10.61134 87.94459 34.63952 -22.9187 -0 0 9.842409 -12.60214 12.62515 6.714989 5.959144 -20.38411 -2.24072 -85.83958 30.8624 10.09842 0 0 -27.60989 -0.5691093 11.13403 15.28995
3.755798 93.5237 41.03462 0.04782977 -1.141792 5.99872 5.162788 -26.86745 5.970001 -0 19.01287 -0 -1.237254 -9.79011 -7.00732 -5.010553 14.77026 -13.71948 -0 27.12309 -0 -5.382466 -18.19878 14.67184 -2.049168 0.1904641 2.916065 2.563866 7.440853 -8.266488 1.608519 21.96694 7.351052 2.782434 -21.08015 9.127521 5.125112 -13.64135 10.61065 88.38752 33.77844 -23.1155 -0 0 8.873623 -13.57283 13.09705 6.847648 5.685466 -20.35961 -2.49831 -85.16355 30.3355 9.005388 0 0 -27.63825 -0.750258 10.46328 15.49924
3.932222 93.503 46.31417 0.221976 -2.282341 6.034562 5.186828 -24.44822 5.865687 -0 19.8303 -0 -0.6110375 -8.545144 -7.612483 -4.919498 13.55727 -12.06132 -0 35.40811 -0 -7.144927 -16.24249 13.7035 -1.725919 0.5643604 3.070053 2.275406 7.66055 -7.951642 1.79934 22.21861 7.098959 2.62491 -20.13246 8.953225 4.910534 -12.89027 10.59897 88.64426 32.77203 -22.94943 -0 0 7.957201 -14.92862 13.70947 7.17268 5.279291 -20.10931 -2.761791 -84.53323 29.82667 7.989214 0 0 -27.27505 -1.213151 9.502811 16.08708
4.136919 93.93983 52.17868 0.4383949 -3.588632 5.990059 5.142406 -20.72641 5.808626 -0 20.86427 -0 0.214651 -7.511962 -8.223524 -4.687408 11.22844 -10.15247 -0 44.39122 -0 -9.103573 -13.8234 12.86632 -1.377997 1.006399 3.376241 1.895622 7.88133 -7.475258 2.023928 22.49726 6.785684 2.433279 -19.02554 8.74438 4.683656 -12.21701 10.59673 88.58274 31.70288 -22.26614 -0 0 7.35351 -16.59968 14.41307 7.728828 4.760721 -19.61738 -2.98641 -84.13264 29.35734 7.388443 0 0 -26.41198 -1.928891 8.318131 17.0231
4.392749 94.79647 58.56345 0.6286953 -4.820276 5.82897 5.088597 -15.70567 5.811485 -0 21.25422 -0 1.004013 -7.236979 -8.607305 -4.161717 7.445674 -8.211579 -0 52.48592 -0 -10.8936 -11.1583 12.41368 -1.024865 1.435543 3.89299 1.480934 8.089629 -6.866466 2.233287 22.72578 6.422187 2.230911 -17.97647 8.486118 4.430864 -11.93162 10.63844 88.05391 30.73482 -20.93513 -0 0 7.462537 -18.34325 15.07902 8.503265 4.205911 -18.93901 -3.10488 -84.24038 28.9446 7.720298 0 0 -24.99869 -2.757184 7.125323 18.12329
4.717084 95.88069 65.26974 0.7069663 -5.655878 5.500315 5.087445 -9.854737 5.837855 -0 20.07905 -0 1.406769 -8.193037 -8.475327 -3.254819 2.252809 -6.558659 -0 57.48202 -0 -12.01294 -8.694856 12.55724 -0.7060316 1.726478 4.625767 1.121682 8.281599 -6.213579 2.357435 22.81067 6.045676 2.057506 -17.28764 8.171541 4.133663 -12.37391 10.75704 86.99847 30.04161 -18.96719 -0 0 8.635544 -19.77945 15.51964 9.394048 3.742429 -18.2278 -3.068721 -85.10374 28.54445 9.436192 0 0 -23.1217 -3.43876 6.281922 19.02551
5.12015 96.89346 72.03676 0.646192 -5.932384 4.979126 5.132322 -3.994646 5.801832 -0 17.32081 -0 1.220991 -10.26958 -7.729099 -2.090131 -3.68982 -5.432717 -0 57.92166 -0 -12.12349 -6.884627 13.29735 -0.4726037 1.785251 5.479526 0.875871 8.474023 -5.618997 2.354983 22.71848 5.707557 1.947255 -17.1309 7.820403 3.785851 -13.63791 10.94906 85.56049 29.6552 -16.57879 -0 0 10.84308 -20.65472 15.59966 10.26134 3.473564 -17.6526 -2.90534 -86.70182 28.02888 12.47912 0 0 -20.97735 -3.730494 6.068516 19.37607
5.609118 97.58044 78.65805 0.5164396 -5.79351 4.300483 5.124367 1.256407 5.659278 -0 14.19539 -0 0.6018575 -12.75295 -6.582812 -0.9509811 -9.478262 -4.859152 -0 54.23774 -0 -11.32628 -5.865741 14.42891 -0.3652979 1.628041 6.308174 0.7154791 8.679627 -5.119185 2.252985 22.51502 5.44358 1.903538 -17.38964 7.481949 3.417491 -15.44414 11.1639 84.01039 29.44465 -14.06088 -0 0 13.63829 -21.06104 15.33965 11.04254 3.393832 -17.24545 -2.697372 -88.69782 27.32029 16.22181 0 0 -18.72114 -3.608825 6.434483 19.13788
6.191037 97.83255 85.02825 0.4071506 -5.50012 3.534486 4.96863 5.761835 5.465629 -0 11.99329 -0 -0.1206362 -14.98304 -5.344296 -0.05273976 -14.56594 -4.715289 -0 48.09512 -0 -10.02672 -5.464824 15.71675 -0.3905963 1.351459 7.018825 0.5762612 8.879967 -4.686372 2.11358 22.29536 5.260216 1.904398 -17.81156 7.203735 3.083605 -17.38322 11.34665 82.54075 29.28151 -11.61091 -0 0 16.52679 -21.25867 14.87581 11.75632 3.417277 -16.90867 -2.500502 -90.71678 26.50336 19.97974 0 0 -16.43001 -3.266397 7.085927 18.59279
6.86975 97.66493 91.12314 0.3564059 -5.221254 2.745509 4.654398 9.578011 5.303973 -0 11.16111 -0 -0.7176887 -16.69466 -4.214623 0.5439052 -18.78824 -4.851272 -0 41.14217 -0 -8.613019 -5.434035 16.9887 -0.5190983 1.048736 7.586851 0.4250283 9.046533 -4.294365 1.983 22.11525 5.145789 1.926179 -18.2163 7.005579 2.823929 -19.16177 11.4737 81.23542 29.12065 -9.350984 -0 0 19.18715 -21.42054 14.34914 12.41756 3.465979 -16.55927 -2.328837 -92.53362 25.72249 23.33881 0 0 -14.19981 -2.909296 7.759162 18.03928
7.641741 97.16399 96.97557 0.3669654 -5.047037 1.983675 4.215625 12.70846 5.214669 -0 11.66333 -0 -1.098989 -17.78471 -3.302244 0.8490638 -22.06113 -5.144858 -0 34.5876 -0 -7.341385 -5.591701 18.11751 -0.7116614 0.7796759 8.004902 0.2549177 9.168156 -3.939567 1.886003 21.99991 5.085541 1.954051 -18.50731 6.887945 2.648841 -20.60451 11.54212 80.16147 28.94564 -7.398078 -0 0 21.40466 -21.62868 13.85554 13.01504 3.497761 -16.1797 -2.192967 -94.01481 25.07744 26.0593 0 0 -12.15509 -2.647462 8.306223 17.63225
8.49539 96.46083 102.6625 0.4372464 -5.052931 1.29399 3.674797 15.11018 5.196735 -0 13.50088 -0 -1.237419 -18.11411 -2.680527 0.8751654 -24.26307 -5.507474 -0 29.26295 -0 -6.370999 -5.832735 19.00189 -0.9408301 0.5804751 8.257934 0.05973996 9.250897 -3.624775 1.838689 21.9689 5.068325 1.9802 -18.61649 6.847735 2.551808 -21.59061 11.55109 79.40124 28.72897 -5.863327 -0 0 23.00364 -21.94974 13.45049 13.53502 3.490331 -15.78052 -2.114703 -95.05056 24.62354 27.96019 0 0 -10.39269 -2.519176 8.647019 17.4218
9.41374 95.71724 108.2904 0.5687133 -5.303397 0.723656 3.03404 16.75222 5.229029 -0 16.78016 -0 -1.13062 -17.52906 -2.398207 0.6285073 -25.28312 -5.882493 -0 25.63884 -0 -5.784627 -6.109736 19.57636 -1.194502 0.4699135 8.329349 -0.1708527 9.30825 -3.349705 1.851693 22.03887 5.087242 2.001155 -18.49397 6.882492 2.520626 -22.04627 11.49822 79.02603 28.43779 -4.820288 -0 0 23.86385 -22.44543 13.1576 13.97359 3.432393 -15.37384 -2.118053 -95.56115 24.38486 28.92228 0 0 -8.954399 -2.52465 8.742221 17.40448
